name analog
datacolumns 19
datarows 67
range 0.525 0.558
endheader
time	ground_force_vx	ground_force_vy	ground_force_vz	ground_force_px	ground_force_py	ground_force_pz	l_ground_force_vx	l_ground_force_vy	l_ground_force_vz	l_ground_force_px	l_ground_force_py	l_ground_force_pz	ground_torque_x	ground_torque_y	ground_torque_z	l_ground_torque_x	l_ground_torque_y	l_ground_torque_z
0.525	-0.0	-0.0	-0.0	-0.0	-0.0	-0.0	-0.0	-0.0	-0.0	-0.0	-0.0	-0.0	-0.0	-0.0	-0.0	-0.0	-0.0	-0.0
0.5255	-0.0	-0.0	-0.0	-0.0	-0.0	-0.0	-0.0	-0.0	-0.0	-0.0	-0.0	-0.0	-0.0	-0.0	-0.0	-0.0	-0.0	-0.0
0.526	-0.0	-0.0	-0.0	-0.0	-0.0	-0.0	-0.0	-0.0	-0.0	-0.0	-0.0	-0.0	-0.0	-0.0	-0.0	-0.0	-0.0	-0.0
0.5265	-0.0	-0.0	-0.0	-0.0	-0.0	-0.0	-0.0	-0.0	-0.0	-0.0	-0.0	-0.0	-0.0	-0.0	-0.0	-0.0	-0.0	-0.0
0.527	-0.0	-0.0	-0.0	-0.0	-0.0	-0.0	-0.0	-0.0	-0.0	-0.0	-0.0	-0.0	-0.0	-0.0	-0.0	-0.0	-0.0	-0.0
0.5275	-0.0	-0.0	-0.0	-0.0	-0.0	-0.0	-0.0	-0.0	-0.0	-0.0	-0.0	-0.0	-0.0	-0.0	-0.0	-0.0	-0.0	-0.0
0.528	-0.0	-0.0	-0.0	-0.0	-0.0	-0.0	-0.0	-0.0	-0.0	-0.0	-0.0	-0.0	-0.0	-0.0	-0.0	-0.0	-0.0	-0.0
0.5285	-0.0	-0.0	-0.0	-0.0	-0.0	-0.0	-0.0	-0.0	-0.0	-0.0	-0.0	-0.0	-0.0	-0.0	-0.0	-0.0	-0.0	-0.0
0.529	-0.0	-0.0	-0.0	-0.0	-0.0	-0.0	-0.0	-0.0	-0.0	-0.0	-0.0	-0.0	-0.0	-0.0	-0.0	-0.0	-0.0	-0.0
0.5295	-0.0	-0.0	-0.0	-0.0	-0.0	-0.0	-0.0	-0.0	-0.0	-0.0	-0.0	-0.0	-0.0	-0.0	-0.0	-0.0	-0.0	-0.0
0.53	-0.0	-0.0	-0.0	-0.0	-0.0	-0.0	-0.0	-0.0	-0.0	-0.0	-0.0	-0.0	-0.0	-0.0	-0.0	-0.0	-0.0	-0.0
0.5305	-0.0	-0.0	-0.0	-0.0	-0.0	-0.0	-0.0	-0.0	-0.0	-0.0	-0.0	-0.0	-0.0	-0.0	-0.0	-0.0	-0.0	-0.0
0.531	-0.0	-0.0	-0.0	-0.0	-0.0	-0.0	-0.0	-0.0	-0.0	-0.0	-0.0	-0.0	-0.0	-0.0	-0.0	-0.0	-0.0	-0.0
0.5315	-0.0	-0.0	-0.0	-0.0	-0.0	-0.0	-0.0	-0.0	-0.0	-0.0	-0.0	-0.0	-0.0	-0.0	-0.0	-0.0	-0.0	-0.0
0.532	-0.0	-0.0	-0.0	-0.0	-0.0	-0.0	-0.0	-0.0	-0.0	-0.0	-0.0	-0.0	-0.0	-0.0	-0.0	-0.0	-0.0	-0.0
0.5325	-0.0	-0.0	-0.0	-0.0	-0.0	-0.0	-0.0	-0.0	-0.0	-0.0	-0.0	-0.0	-0.0	-0.0	-0.0	-0.0	-0.0	-0.0
0.533	-0.0	-0.0	-0.0	-0.0	-0.0	-0.0	-0.0	-0.0	-0.0	-0.0	-0.0	-0.0	-0.0	-0.0	-0.0	-0.0	-0.0	-0.0
0.5335	-0.0	-0.0	-0.0	-0.0	-0.0	-0.0	-0.0	-0.0	-0.0	-0.0	-0.0	-0.0	-0.0	-0.0	-0.0	-0.0	-0.0	-0.0
0.534	-0.0	-0.0	-0.0	-0.0	-0.0	-0.0	-0.0	-0.0	-0.0	-0.0	-0.0	-0.0	-0.0	-0.0	-0.0	-0.0	-0.0	-0.0
0.5345	-0.0	-0.0	-0.0	-0.0	-0.0	-0.0	-0.0	-0.0	-0.0	-0.0	-0.0	-0.0	-0.0	-0.0	-0.0	-0.0	-0.0	-0.0
0.535	-0.0	-0.0	-0.0	-0.0	-0.0	-0.0	-0.0	-0.0	-0.0	-0.0	-0.0	-0.0	-0.0	-0.0	-0.0	-0.0	-0.0	-0.0
0.5355	-0.0	-0.0	-0.0	-0.0	-0.0	-0.0	-0.0	-0.0	-0.0	-0.0	-0.0	-0.0	-0.0	-0.0	-0.0	-0.0	-0.0	-0.0
0.536	-0.0	-0.0	-0.0	-0.0	-0.0	-0.0	-0.0	-0.0	-0.0	-0.0	-0.0	-0.0	-0.0	-0.0	-0.0	-0.0	-0.0	-0.0
0.5365	-0.0	-0.0	-0.0	-0.0	-0.0	-0.0	-0.0	-0.0	-0.0	-0.0	-0.0	-0.0	-0.0	-0.0	-0.0	-0.0	-0.0	-0.0
0.537	-0.0	-0.0	-0.0	-0.0	-0.0	-0.0	-0.0	-0.0	-0.0	-0.0	-0.0	-0.0	-0.0	-0.0	-0.0	-0.0	-0.0	-0.0
0.5375	-0.0	-0.0	-0.0	-0.0	-0.0	-0.0	-0.0	-0.0	-0.0	-0.0	-0.0	-0.0	-0.0	-0.0	-0.0	-0.0	-0.0	-0.0
0.538	-0.0	-0.0	-0.0	-0.0	-0.0	-0.0	-0.0	-0.0	-0.0	-0.0	-0.0	-0.0	-0.0	-0.0	-0.0	-0.0	-0.0	-0.0
0.5385	-0.0	-0.0	-0.0	-0.0	-0.0	-0.0	-0.0	-0.0	-0.0	-0.0	-0.0	-0.0	-0.0	-0.0	-0.0	-0.0	-0.0	-0.0
0.539	-0.0	-0.0	-0.0	-0.0	-0.0	-0.0	-0.0	-0.0	-0.0	-0.0	-0.0	-0.0	-0.0	-0.0	-0.0	-0.0	-0.0	-0.0
0.5395	-0.0	-0.0	-0.0	-0.0	-0.0	-0.0	-0.0	-0.0	-0.0	-0.0	-0.0	-0.0	-0.0	-0.0	-0.0	-0.0	-0.0	-0.0
0.54	-0.0	-0.0	-0.0	-0.0	-0.0	-0.0	-0.0	-0.0	-0.0	-0.0	-0.0	-0.0	-0.0	-0.0	-0.0	-0.0	-0.0	-0.0
0.5405	-0.0	-0.0	-0.0	-0.0	-0.0	-0.0	-0.0	-0.0	-0.0	-0.0	-0.0	-0.0	-0.0	-0.0	-0.0	-0.0	-0.0	-0.0
0.541	-0.0	-0.0	-0.0	-0.0	-0.0	-0.0	-0.0	-0.0	-0.0	-0.0	-0.0	-0.0	-0.0	-0.0	-0.0	-0.0	-0.0	-0.0
0.5415	-0.0	-0.0	-0.0	-0.0	-0.0	-0.0	-0.0	-0.0	-0.0	-0.0	-0.0	-0.0	-0.0	-0.0	-0.0	-0.0	-0.0	-0.0
0.542	-0.0	-0.0	-0.0	-0.0	-0.0	-0.0	-0.0	-0.0	-0.0	-0.0	-0.0	-0.0	-0.0	-0.0	-0.0	-0.0	-0.0	-0.0
0.5425	-0.0	-0.0	-0.0	-47.423614501953125	-18.06748962402344	-132.7532196044922	-0.0	-0.0	-0.0	-0.0	-0.0	-0.0	-0.0	-0.0	-0.0	-0.0	-0.0	-0.0
0.543	-0.0	-0.0	-0.0	-136.52182006835938	27.3396110534668	-260.3486328125	13.682101249694824	-60.7041130065918	-157.96214294433594	-0.0	-0.0	-0.0	-0.0	-0.0	-0.0	33752.3515625	34959.26171875	-12309.6220703125
0.5435	-0.0	-0.0	-0.0	-296.679443359375	118.31453704833984	-553.0354614257812	-145.73922729492188	-71.78873443603516	-551.4205322265625	-0.0	-0.0	-0.0	-0.0	-0.0	-0.0	79272.9921875	75004.3515625	-34302.921875
0.544	-0.0	-0.0	-0.0	-187.0514678955078	94.4323272705078	-298.0474548339844	-243.66058349609372	-117.27731323242188	-364.5354919433594	-0.0	-0.0	-0.0	-0.0	-0.0	-0.0	62550.8671875	64017.1796875	-58136.4375
0.5445	-0.0	-0.0	-0.0	-47.282691955566406	44.592918395996094	-379.47650146484375	-212.49464416503903	-103.20697784423828	-390.46044921875	-0.0	-0.0	-0.0	-0.0	-0.0	-0.0	54106.375	58938.17578125	-48928.0
0.545	-0.0	-0.0	-0.0	5.987028121948242	41.82196807861328	-428.8388671875	-167.63970947265625	-126.18646240234376	-506.11474609375	-0.0	-0.0	-0.0	-0.0	-0.0	-0.0	83588.171875	78304.3359375	-41696.765625
0.5455	-0.0	-0.0	-0.0	26.47238540649414	61.64079666137695	-507.666015625	-54.1020393371582	-129.67945861816406	-624.046875	-0.0	-0.0	-0.0	-0.0	-0.0	-0.0	97596.734375	84548.6640625	-22160.78515625
0.546	-0.0	-0.0	-0.0	-26.78239631652832	87.1996078491211	-590.0299682617188	10.334466934204102	-130.6768798828125	-641.7239990234375	-0.0	-0.0	-0.0	-0.0	-0.0	-0.0	102010.46875	83003.9921875	-10847.8466796875
0.5465	-0.0	-0.0	-0.0	-71.23269653320312	182.54876708984372	-1136.1805419921875	133.79766845703125	-260.9079284667969	-1453.5009765625	-0.0	-0.0	-0.0	-0.0	-0.0	-0.0	259241.546875	73855.3671875	9814.65234375
0.547	-0.0	-0.0	-0.0	351.8563842773437	281.3519287109375	-3222.58642578125	742.975830078125	-525.13671875	-4564.73828125	-0.0	-0.0	-0.0	-0.0	-0.0	-0.0	853927.625	17685.53515625	122218.4375
0.5475	-0.0	-0.0	-0.0	1022.8890380859376	213.8215789794922	-3058.53466796875	1043.969482421875	-325.0904846191406	-3375.297607421875	-0.0	-0.0	-0.0	-0.0	-0.0	-0.0	645015.75	-8286.7607421875	186286.890625
0.548	-0.0	-0.0	-0.0	859.9746704101562	103.75904083251952	-2531.837646484375	564.6668090820312	-206.1275634765625	-2558.968994140625	-0.0	-0.0	-0.0	-0.0	-0.0	-0.0	487332.8125	18136.8671875	91620.515625
0.5485	-0.0	-0.0	-0.0	402.9065551757813	218.65745544433597	-2360.9853515625	196.6618194580078	-236.9437561035156	-2084.759521484375	-0.0	-0.0	-0.0	-0.0	-0.0	-0.0	390953.1875	52799.890625	16731.849609375
0.549	-0.0	-0.0	-0.0	109.70466613769533	265.9635314941406	-1857.837158203125	-56.663848876953125	-247.3914031982422	-1604.469482421875	-0.0	-0.0	-0.0	-0.0	-0.0	-0.0	295726.0625	68323.9296875	-30960.345703125
0.5495	-0.0	-0.0	-0.0	-98.3021240234375	281.9566650390625	-1552.381103515625	-233.5195159912109	-264.18560791015625	-1296.4609375	-0.0	-0.0	-0.0	-0.0	-0.0	-0.0	233193.9375	83091.7890625	-68039.1171875
0.55	-0.0	-0.0	-0.0	-234.2931365966797	257.2868347167969	-1325.1007080078125	-314.6830139160156	-235.3654327392578	-1088.723876953125	-0.0	-0.0	-0.0	-0.0	-0.0	-0.0	194031.5	89470.2109375	-82890.3046875
0.5505	-0.0	-0.0	-0.0	-249.77764892578125	202.2913818359375	-1158.909423828125	-291.9498596191406	-209.1454162597656	-982.714599609375	-0.0	-0.0	-0.0	-0.0	-0.0	-0.0	173132.53125	90037.6328125	-80182.4375
0.551	-0.0	-0.0	-0.0	-225.6452789306641	170.790771484375	-1098.2890625	-243.20469665527344	-200.80142211914065	-980.7172241210938	-0.0	-0.0	-0.0	-0.0	-0.0	-0.0	173341.84375	88368.203125	-73792.171875
0.5515	-0.0	-0.0	-0.0	-175.5010986328125	150.78091430664062	-1144.5120849609375	-179.0312957763672	-193.689453125	-1095.2198486328125	-0.0	-0.0	-0.0	-0.0	-0.0	-0.0	197338.125	84795.515625	-61874.69921875
0.552	-0.0	-0.0	-0.0	-93.60082244873048	135.87374877929688	-1195.2587890625	-89.75088500976562	-196.24435424804688	-1254.2601318359375	-0.0	-0.0	-0.0	-0.0	-0.0	-0.0	229536.09375	79334.265625	-44896.046875
0.5525	-0.0	-0.0	-0.0	-29.20404624938965	139.3593292236328	-1220.8790283203125	-10.038926124572754	-203.22080993652344	-1336.55322265625	-0.0	-0.0	-0.0	-0.0	-0.0	-0.0	245972.65625	73350.828125	-29870.658203125
0.553	-0.0	-0.0	-0.0	4.4195332527160645	159.6642608642578	-1200.8770751953125	29.09691047668457	-205.64393615722656	-1323.0635986328125	-0.0	-0.0	-0.0	-0.0	-0.0	-0.0	243420.515625	69705.1171875	-21028.466796875
0.5535	-0.0	-0.0	-0.0	5.687050342559815	187.30902099609372	-1152.046630859375	17.49597930908203	-218.630126953125	-1277.93408203125	-0.0	-0.0	-0.0	-0.0	-0.0	-0.0	233257.203125	70120.1171875	-23496.109375
0.554	-0.0	-0.0	-0.0	-3.0468130111694336	197.3909149169922	-1098.5274658203125	-15.025821685791016	-233.71560668945312	-1208.04736328125	-0.0	-0.0	-0.0	-0.0	-0.0	-0.0	217911.46875	72502.4609375	-30132.125
0.5545	-0.0	-0.0	-0.0	-12.217161178588867	192.21121215820312	-1042.9495849609375	-44.599727630615234	-241.44000244140625	-1143.4195556640625	-0.0	-0.0	-0.0	-0.0	-0.0	-0.0	204398.28125	74299.1875	-36524.8984375
0.555	-0.0	-0.0	-0.0	-24.5114860534668	180.44827270507807	-1007.8138427734376	-59.07088470458984	-239.2350616455078	-1108.029541015625	-0.0	-0.0	-0.0	-0.0	-0.0	-0.0	197323.9375	75351.375	-39550.921875
0.5555	-0.0	-0.0	-0.0	-28.98596572875977	167.98846435546875	-985.8280639648438	-49.93272018432617	-227.16339111328125	-1094.880859375	-0.0	-0.0	-0.0	-0.0	-0.0	-0.0	195137.46875	74241.3203125	-37263.3984375
0.556	-0.0	-0.0	-0.0	-27.985790252685547	157.1924285888672	-971.2158203125	-34.12857437133789	-215.25135803222656	-1098.7349853515625	-0.0	-0.0	-0.0	-0.0	-0.0	-0.0	196065.59375	72520.4296875	-33647.80859375
0.5565	-0.0	-0.0	-0.0	-27.416357040405277	148.77809143066406	-960.669677734375	-22.769975662231445	-203.87049865722656	-1093.0048828125	-0.0	-0.0	-0.0	-0.0	-0.0	-0.0	196040.328125	71093.9296875	-30548.21875
0.557	-0.0	-0.0	-0.0	-30.16025161743164	141.5942840576172	-939.6431884765624	-22.21315193176269	-195.83395385742188	-1073.5574951171875	-0.0	-0.0	-0.0	-0.0	-0.0	-0.0	192097.75	70332.125	-29373.611328125
0.5575	-0.0	-0.0	-0.0	-35.03249740600586	137.3360595703125	-906.883544921875	-32.06624221801758	-189.4561767578125	-1032.465576171875	-0.0	-0.0	-0.0	-0.0	-0.0	-0.0	184515.21875	69929.1640625	-30542.859375
0.558	-0.0	-0.0	-0.0	-38.17526626586914	135.19033813476562	-872.95263671875	-43.434173583984375	-178.8378143310547	-978.4302368164062	-0.0	-0.0	-0.0	-0.0	-0.0	-0.0	174195.65625	69197.265625	-31508.7890625
